<svg width="8" height="14" viewBox="0 0 8 14" fill="none" xmlns="http://www.w3.org/2000/svg">
<path fill-rule="evenodd" clip-rule="evenodd" d="M0.646039 0.645978C0.692485 0.599415 0.74766 0.562472 0.808405 0.537266C0.869151 0.512059 0.934272 0.499084 1.00004 0.499084C1.06581 0.499084 1.13093 0.512059 1.19167 0.537266C1.25242 0.562472 1.30759 0.599415 1.35404 0.645978L7.35404 6.64598C7.4006 6.69242 7.43754 6.7476 7.46275 6.80834C7.48796 6.86909 7.50093 6.93421 7.50093 6.99998C7.50093 7.06575 7.48796 7.13087 7.46275 7.19161C7.43754 7.25236 7.4006 7.30753 7.35404 7.35398L1.35404 13.354C1.26015 13.4479 1.13281 13.5006 1.00004 13.5006C0.867263 13.5006 0.739926 13.4479 0.646039 13.354C0.552152 13.2601 0.499407 13.1328 0.499407 13C0.499407 12.8672 0.552152 12.7399 0.646039 12.646L6.29304 6.99998L0.646039 1.35398C0.599476 1.30753 0.562533 1.25236 0.537326 1.19161C0.51212 1.13087 0.499146 1.06575 0.499146 0.999978C0.499146 0.934211 0.51212 0.86909 0.537326 0.808345C0.562533 0.7476 0.599476 0.692424 0.646039 0.645978Z" fill="black"/>
</svg>
